# xmcd
#
# Track frame offsets: 
#        150
#        20815
#        33692
#        51293
#        64095
#        98529
#        125831
#        143020
#        153735
#        165159
#        183827
#        196776
#        228178
#
# Disc length: 3276 seconds
#
# Revision: 0
# Processed by: cddbd v1.5.2PL0 Copyright (c) Steve Scherf et al.
# Submitted via: ExactAudioCopy v1.0b3
#
DISCID=a90cca0d
DTITLE=Blues Flowers - Kryminał
DYEAR=2017
DGENRE=Blues
TTITLE0=Kryminalny
TTITLE1=Długowłosa Juanita I Carlos Wąsaty
TTITLE2=Grudniowy Blues 2008
TTITLE3=Dzieńoraznoc
TTITLE4=Taki Blues Taki Jazz
TTITLE5=Nowy Pomysł Na Życie
TTITLE6=Basetlisty Krzesany Siarczysty
TTITLE7=Kowboje Gieroje
TTITLE8=Kartoflisko
TTITLE9=Letnie Grzanie
TTITLE10=Przegwizdane Mam
TTITLE11=Sprzyjające Okoliczności Przyrody
TTITLE12=Kryminalny - wersja radiowa
EXTD=
EXTT0=
EXTT1=
EXTT2=
EXTT3=
EXTT4=
EXTT5=
EXTT6=
EXTT7=
EXTT8=
EXTT9=
EXTT10=
EXTT11=
EXTT12=
PLAYORDER=
